# xmcd
#
# Track frame offsets:
#	150
#	21909
#	41355
#	60938
#	73066
#	87518
#	103690
#	126480
#	143096
#	162726
#	181421
#	193147
#	210872
#	233962
#	246014
#
# Disc length: 3549 seconds
#
# Revision: 1
# Processed by: cddbd v1.5.1PL0 Copyright (c) Steve Scherf et al.
# Submitted via: EasyCDDAExtractor 6.5.0.1
#
DISCID=d60ddb0f
DTITLE=Mauricio Ubal y G. Moreira - El faro del fin del mundo (en vivo)
DYEAR=2004
DGENRE=Country
TTITLE0=un ladron
TTITLE1=el faro del fin del mundo
TTITLE2=antes que cambie la luz
TTITLE3=mentiroso
TTITLE4=segunda cancion a octavio
TTITLE5=camaleon
TTITLE6=copla de exilios
TTITLE7=los inundados
TTITLE8=es contigo
TTITLE9=se nos fue volando
TTITLE10=corazon acelerado
TTITLE11=los fantasmas de la torre olimpica
TTITLE12=el niño relator
TTITLE13=dolares y liras
TTITLE14=el faro del fin del mundo (estudio)
EXTD=
EXTT0=
EXTT1=
EXTT2=
EXTT3=
EXTT4=
EXTT5=
EXTT6=
EXTT7=
EXTT8=
EXTT9=
EXTT10=
EXTT11=
EXTT12=
EXTT13=
EXTT14=
PLAYORDER=
